<svg width="16" height="16" viewBox="0 0 16 16" fill="none" xmlns="http://www.w3.org/2000/svg">
<g opacity="0.5">
<path d="M6.93317 2.6333C9.30792 2.6333 11.2329 4.55837 11.233 6.93311C11.233 7.94873 10.8819 8.88107 10.2935 9.6167L10.0132 9.96631L13.357 13.3101C13.3634 13.3166 13.3668 13.325 13.3668 13.3335L13.357 13.3569C13.344 13.3698 13.3232 13.3697 13.3101 13.3569L9.96637 10.0132L9.61676 10.2935C8.88113 10.8819 7.94879 11.2329 6.93317 11.2329C4.55843 11.2328 2.63336 9.30786 2.63336 6.93311C2.63347 4.55844 4.5585 2.63341 6.93317 2.6333ZM6.93317 2.69971C4.59531 2.69981 2.69987 4.59525 2.69977 6.93311C2.69977 9.27105 4.59525 11.1664 6.93317 11.1665C9.27118 11.1665 11.1666 9.27111 11.1666 6.93311C11.1665 4.59519 9.27111 2.69971 6.93317 2.69971Z" fill="#09090B" stroke="#09090B"/>
</g>
</svg>
